<svg width="27" height="26" viewBox="0 0 27 26" fill="none" xmlns="http://www.w3.org/2000/svg">
<path d="M23.9724 11.7981L19.5305 15.631L20.8838 21.3629C20.9585 21.6741 20.9392 22.0004 20.8285 22.3007C20.7178 22.6009 20.5207 22.8616 20.2619 23.0498C20.0031 23.238 19.6943 23.3453 19.3746 23.3582C19.0549 23.371 18.7385 23.2888 18.4654 23.1219L13.4807 20.0541L8.49299 23.1219C8.21999 23.2878 7.904 23.3693 7.58481 23.356C7.26563 23.3427 6.95751 23.2352 6.69927 23.0471C6.44102 22.8591 6.2442 22.5988 6.13358 22.2991C6.02295 21.9994 6.00348 21.6737 6.0776 21.3629L7.43582 15.631L2.99397 11.7981C2.75243 11.5894 2.57774 11.3141 2.49172 11.0067C2.40571 10.6992 2.41217 10.3732 2.51031 10.0694C2.60845 9.76565 2.79392 9.4975 3.04355 9.29849C3.29318 9.09947 3.5959 8.97841 3.91393 8.95042L9.73769 8.48057L11.9843 3.04374C12.1059 2.74744 12.3129 2.49399 12.5789 2.31561C12.8449 2.13723 13.1579 2.04199 13.4782 2.04199C13.7985 2.04199 14.1116 2.13723 14.3776 2.31561C14.6436 2.49399 14.8506 2.74744 14.9722 3.04374L17.2178 8.48057L23.0415 8.95042C23.3602 8.97737 23.6638 9.09776 23.9143 9.2965C24.1649 9.49524 24.3512 9.76349 24.45 10.0677C24.5487 10.3718 24.5555 10.6984 24.4695 11.0064C24.3835 11.3144 24.2085 11.5901 23.9664 11.7991L23.9724 11.7981Z" fill="#353535"/>
</svg>
