<svg width="26" height="26" viewBox="0 0 26 26" fill="none" xmlns="http://www.w3.org/2000/svg">
<path d="M23.8186 12.0674L19.3767 15.9003L20.73 21.6322C20.8047 21.9434 20.7854 22.2697 20.6747 22.5699C20.564 22.8702 20.3668 23.1309 20.1081 23.3191C19.8493 23.5073 19.5405 23.6146 19.2208 23.6275C18.901 23.6403 18.5847 23.5581 18.3116 23.3912L13.3269 20.3234L8.33918 23.3912C8.06618 23.5571 7.75019 23.6386 7.431 23.6253C7.11182 23.6119 6.8037 23.5045 6.54546 23.3164C6.28722 23.1284 6.09039 22.8681 5.97977 22.5684C5.86914 22.2687 5.84967 21.943 5.92379 21.6322L7.28202 15.9003L2.84016 12.0674C2.59862 11.8587 2.42393 11.5834 2.33792 11.2759C2.2519 10.9685 2.25836 10.6425 2.3565 10.3387C2.45465 10.0349 2.64011 9.76679 2.88974 9.56778C3.13937 9.36876 3.4421 9.2477 3.76012 9.21971L9.58388 8.74986L11.8305 3.31303C11.9521 3.01672 12.159 2.76327 12.4251 2.5849C12.6911 2.40652 13.0041 2.31128 13.3244 2.31128C13.6447 2.31128 13.9578 2.40652 14.2238 2.5849C14.4898 2.76327 14.6968 3.01672 14.8184 3.31303L17.064 8.74986L22.8877 9.21971C23.2064 9.24666 23.51 9.36705 23.7605 9.56579C24.0111 9.76453 24.1974 10.0328 24.2961 10.3369C24.3949 10.6411 24.4017 10.9676 24.3157 11.2756C24.2297 11.5837 24.0547 11.8594 23.8126 12.0684L23.8186 12.0674Z" fill="#D9D9D9"/>
</svg>
