<svg width="26" height="26" viewBox="0 0 26 26" fill="none" xmlns="http://www.w3.org/2000/svg">
<path d="M23.8569 11.7981L19.415 15.631L20.7683 21.3629C20.843 21.6741 20.8238 22.0004 20.7131 22.3007C20.6024 22.6009 20.4052 22.8616 20.1464 23.0498C19.8876 23.238 19.5788 23.3453 19.2591 23.3582C18.9394 23.371 18.623 23.2888 18.35 23.1219L13.3652 20.0541L8.37751 23.1219C8.10451 23.2878 7.78852 23.3693 7.46933 23.356C7.15015 23.3427 6.84203 23.2352 6.58379 23.0471C6.32555 22.8591 6.12872 22.5988 6.0181 22.2991C5.90747 21.9994 5.888 21.6737 5.96212 21.3629L7.32035 15.631L2.87849 11.7981C2.63695 11.5894 2.46226 11.3141 2.37625 11.0067C2.29023 10.6992 2.29669 10.3732 2.39484 10.0694C2.49298 9.76565 2.67844 9.4975 2.92807 9.29849C3.1777 9.09947 3.48043 8.97841 3.79845 8.95042L9.62221 8.48057L11.8688 3.04374C11.9904 2.74744 12.1974 2.49399 12.4634 2.31561C12.7294 2.13723 13.0425 2.04199 13.3628 2.04199C13.683 2.04199 13.9961 2.13723 14.2621 2.31561C14.5281 2.49399 14.7351 2.74744 14.8567 3.04374L17.1023 8.48057L22.9261 8.95042C23.2447 8.97737 23.5483 9.09776 23.7989 9.2965C24.0494 9.49524 24.2357 9.76349 24.3345 10.0677C24.4332 10.3718 24.44 10.6984 24.354 11.0064C24.268 11.3144 24.093 11.5901 23.851 11.7991L23.8569 11.7981Z" fill="#D9D9D9"/>
</svg>
