<svg width="26" height="26" viewBox="0 0 26 26" fill="none" xmlns="http://www.w3.org/2000/svg">
<path d="M23.1262 12.0674L18.6843 15.9003L20.0376 21.6322C20.1123 21.9434 20.093 22.2697 19.9823 22.5699C19.8717 22.8702 19.6745 23.1309 19.4157 23.3191C19.1569 23.5073 18.8481 23.6146 18.5284 23.6275C18.2087 23.6403 17.8923 23.5581 17.6193 23.3912L12.6345 20.3234L7.6468 23.3912C7.3738 23.5571 7.05781 23.6386 6.73862 23.6253C6.41943 23.6119 6.11132 23.5045 5.85308 23.3164C5.59483 23.1284 5.39801 22.8681 5.28738 22.5684C5.17676 22.2687 5.15729 21.943 5.23141 21.6322L6.58963 15.9003L2.14778 12.0674C1.90624 11.8587 1.73155 11.5834 1.64553 11.2759C1.55952 10.9685 1.56598 10.6425 1.66412 10.3387C1.76226 10.0349 1.94773 9.76679 2.19736 9.56778C2.44698 9.36876 2.74971 9.2477 3.06773 9.21971L8.8915 8.74986L11.1381 3.31303C11.2597 3.01672 11.4667 2.76327 11.7327 2.5849C11.9987 2.40652 12.3118 2.31128 12.632 2.31128C12.9523 2.31128 13.2654 2.40652 13.5314 2.5849C13.7974 2.76327 14.0044 3.01672 14.126 3.31303L16.3716 8.74986L22.1954 9.21971C22.514 9.24666 22.8176 9.36705 23.0682 9.56579C23.3187 9.76453 23.505 10.0328 23.6038 10.3369C23.7025 10.6411 23.7093 10.9676 23.6233 11.2756C23.5373 11.5837 23.3623 11.8594 23.1202 12.0684L23.1262 12.0674Z" fill="#D9D9D9"/>
</svg>
