<svg width="27" height="26" viewBox="0 0 27 26" fill="none" xmlns="http://www.w3.org/2000/svg">
<path d="M24.0876 11.7981L19.6457 15.631L20.999 21.3629C21.0737 21.6741 21.0545 22.0004 20.9438 22.3007C20.8331 22.6009 20.6359 22.8616 20.3771 23.0498C20.1183 23.238 19.8096 23.3453 19.4898 23.3582C19.1701 23.371 18.8537 23.2888 18.5807 23.1219L13.5959 20.0541L8.60822 23.1219C8.33522 23.2878 8.01923 23.3693 7.70005 23.356C7.38086 23.3427 7.07275 23.2352 6.8145 23.0471C6.55626 22.8591 6.35943 22.5988 6.24881 22.2991C6.13819 21.9994 6.11871 21.6737 6.19284 21.3629L7.55106 15.631L3.1092 11.7981C2.86766 11.5894 2.69298 11.3141 2.60696 11.0067C2.52094 10.6992 2.52741 10.3732 2.62555 10.0694C2.72369 9.76565 2.90915 9.4975 3.15878 9.29849C3.40841 9.09947 3.71114 8.97841 4.02916 8.95042L9.85293 8.48057L12.0995 3.04374C12.2211 2.74744 12.4281 2.49399 12.6941 2.31561C12.9601 2.13723 13.2732 2.04199 13.5935 2.04199C13.9138 2.04199 14.2268 2.13723 14.4928 2.31561C14.7588 2.49399 14.9658 2.74744 15.0874 3.04374L17.333 8.48057L23.1568 8.95042C23.4754 8.97737 23.779 9.09776 24.0296 9.2965C24.2801 9.49524 24.4664 9.76349 24.5652 10.0677C24.6639 10.3718 24.6707 10.6984 24.5847 11.0064C24.4987 11.3144 24.3237 11.5901 24.0817 11.7991L24.0876 11.7981Z" fill="#353535"/>
</svg>
