<svg width="26" height="26" viewBox="0 0 26 26" fill="none" xmlns="http://www.w3.org/2000/svg">
<path d="M23.5876 11.7981L19.1457 15.631L20.499 21.3629C20.5737 21.6741 20.5545 22.0004 20.4438 22.3007C20.3331 22.6009 20.1359 22.8616 19.8771 23.0498C19.6183 23.238 19.3096 23.3453 18.9898 23.3582C18.6701 23.371 18.3537 23.2888 18.0807 23.1219L13.0959 20.0541L8.10822 23.1219C7.83522 23.2878 7.51923 23.3693 7.20005 23.356C6.88086 23.3427 6.57275 23.2352 6.3145 23.0471C6.05626 22.8591 5.85943 22.5988 5.74881 22.2991C5.63819 21.9994 5.61871 21.6737 5.69284 21.3629L7.05106 15.631L2.6092 11.7981C2.36766 11.5894 2.19298 11.3141 2.10696 11.0067C2.02094 10.6992 2.02741 10.3732 2.12555 10.0694C2.22369 9.76565 2.40915 9.4975 2.65878 9.29849C2.90841 9.09947 3.21114 8.97841 3.52916 8.95042L9.35293 8.48057L11.5995 3.04374C11.7211 2.74744 11.9281 2.49399 12.1941 2.31561C12.4601 2.13723 12.7732 2.04199 13.0935 2.04199C13.4138 2.04199 13.7268 2.13723 13.9928 2.31561C14.2588 2.49399 14.4658 2.74744 14.5874 3.04374L16.833 8.48057L22.6568 8.95042C22.9754 8.97737 23.279 9.09776 23.5296 9.2965C23.7801 9.49524 23.9664 9.76349 24.0652 10.0677C24.1639 10.3718 24.1707 10.6984 24.0847 11.0064C23.9987 11.3144 23.8237 11.5901 23.5817 11.7991L23.5876 11.7981Z" fill="#D9D9D9"/>
</svg>
