<svg width="27" height="26" viewBox="0 0 27 26" fill="none" xmlns="http://www.w3.org/2000/svg">
<path d="M24.0109 11.7981L19.5691 15.631L20.9224 21.3629C20.997 21.6741 20.9778 22.0004 20.8671 22.3007C20.7564 22.6009 20.5592 22.8616 20.3004 23.0498C20.0417 23.238 19.7329 23.3453 19.4132 23.3582C19.0934 23.371 18.7771 23.2888 18.504 23.1219L13.5193 20.0541L8.53156 23.1219C8.25856 23.2878 7.94257 23.3693 7.62339 23.356C7.3042 23.3427 6.99609 23.2352 6.73784 23.0471C6.4796 22.8591 6.28277 22.5988 6.17215 22.2991C6.06153 21.9994 6.04205 21.6737 6.11618 21.3629L7.4744 15.631L3.03254 11.7981C2.791 11.5894 2.61632 11.3141 2.5303 11.0067C2.44428 10.6992 2.45075 10.3732 2.54889 10.0694C2.64703 9.76565 2.83249 9.4975 3.08212 9.29849C3.33175 9.09947 3.63448 8.97841 3.9525 8.95042L9.77627 8.48057L12.0229 3.04374C12.1445 2.74744 12.3514 2.49399 12.6174 2.31561C12.8835 2.13723 13.1965 2.04199 13.5168 2.04199C13.8371 2.04199 14.1501 2.13723 14.4162 2.31561C14.6822 2.49399 14.8891 2.74744 15.0107 3.04374L17.2564 8.48057L23.0801 8.95042C23.3988 8.97737 23.7024 9.09776 23.9529 9.2965C24.2035 9.49524 24.3898 9.76349 24.4885 10.0677C24.5873 10.3718 24.5941 10.6984 24.5081 11.0064C24.4221 11.3144 24.2471 11.5901 24.005 11.7991L24.0109 11.7981Z" fill="#D9D9D9"/>
</svg>
