<svg width="26" height="26" viewBox="0 0 26 26" fill="none" xmlns="http://www.w3.org/2000/svg">
<path d="M23.8569 12.0674L19.415 15.9003L20.7683 21.6322C20.843 21.9434 20.8238 22.2697 20.7131 22.5699C20.6024 22.8702 20.4052 23.1309 20.1464 23.3191C19.8876 23.5073 19.5788 23.6146 19.2591 23.6275C18.9394 23.6403 18.623 23.5581 18.35 23.3912L13.3652 20.3234L8.37751 23.3912C8.10451 23.5571 7.78852 23.6386 7.46933 23.6253C7.15015 23.6119 6.84203 23.5045 6.58379 23.3164C6.32555 23.1284 6.12872 22.8681 6.0181 22.5684C5.90747 22.2687 5.888 21.943 5.96212 21.6322L7.32035 15.9003L2.87849 12.0674C2.63695 11.8587 2.46226 11.5834 2.37625 11.2759C2.29023 10.9685 2.29669 10.6425 2.39484 10.3387C2.49298 10.0349 2.67844 9.76679 2.92807 9.56778C3.1777 9.36876 3.48043 9.2477 3.79845 9.21971L9.62221 8.74986L11.8688 3.31303C11.9904 3.01672 12.1974 2.76327 12.4634 2.5849C12.7294 2.40652 13.0425 2.31128 13.3628 2.31128C13.683 2.31128 13.9961 2.40652 14.2621 2.5849C14.5281 2.76327 14.7351 3.01672 14.8567 3.31303L17.1023 8.74986L22.9261 9.21971C23.2447 9.24666 23.5483 9.36705 23.7989 9.56579C24.0494 9.76453 24.2357 10.0328 24.3345 10.3369C24.4332 10.6411 24.44 10.9676 24.354 11.2756C24.268 11.5837 24.093 11.8594 23.851 12.0684L23.8569 12.0674Z" fill="#D9D9D9"/>
</svg>
