<svg width="27" height="26" viewBox="0 0 27 26" fill="none" xmlns="http://www.w3.org/2000/svg">
<path d="M23.8955 11.7981L19.4536 15.631L20.8069 21.3629C20.8816 21.6741 20.8623 22.0004 20.7516 22.3007C20.6409 22.6009 20.4437 22.8616 20.185 23.0498C19.9262 23.238 19.6174 23.3453 19.2977 23.3582C18.9779 23.371 18.6616 23.2888 18.3885 23.1219L13.4038 20.0541L8.41608 23.1219C8.14308 23.2878 7.8271 23.3693 7.50791 23.356C7.18872 23.3427 6.88061 23.2352 6.62236 23.0471C6.36412 22.8591 6.16729 22.5988 6.05667 22.2991C5.94605 21.9994 5.92657 21.6737 6.0007 21.3629L7.35892 15.631L2.91706 11.7981C2.67552 11.5894 2.50084 11.3141 2.41482 11.0067C2.3288 10.6992 2.33527 10.3732 2.43341 10.0694C2.53155 9.76565 2.71701 9.4975 2.96664 9.29849C3.21627 9.09947 3.519 8.97841 3.83702 8.95042L9.66079 8.48057L11.9074 3.04374C12.029 2.74744 12.236 2.49399 12.502 2.31561C12.768 2.13723 13.081 2.04199 13.4013 2.04199C13.7216 2.04199 14.0347 2.13723 14.3007 2.31561C14.5667 2.49399 14.7737 2.74744 14.8953 3.04374L17.1409 8.48057L22.9646 8.95042C23.2833 8.97737 23.5869 9.09776 23.8374 9.2965C24.088 9.49524 24.2743 9.76349 24.373 10.0677C24.4718 10.3718 24.4786 10.6984 24.3926 11.0064C24.3066 11.3144 24.1316 11.5901 23.8895 11.7991L23.8955 11.7981Z" fill="#D9D9D9"/>
</svg>
