<svg width="26" height="26" viewBox="0 0 26 26" fill="none" xmlns="http://www.w3.org/2000/svg">
<path d="M23.1647 12.0674L18.7229 15.9003L20.0762 21.6322C20.1508 21.9434 20.1316 22.2697 20.0209 22.5699C19.9102 22.8702 19.713 23.1309 19.4543 23.3191C19.1955 23.5073 18.8867 23.6146 18.567 23.6275C18.2472 23.6403 17.9309 23.5581 17.6578 23.3912L12.6731 20.3234L7.68537 23.3912C7.41237 23.5571 7.09638 23.6386 6.7772 23.6253C6.45801 23.6119 6.14989 23.5045 5.89165 23.3164C5.63341 23.1284 5.43658 22.8681 5.32596 22.5684C5.21533 22.2687 5.19586 21.943 5.26999 21.6322L6.62821 15.9003L2.18635 12.0674C1.94481 11.8587 1.77012 11.5834 1.68411 11.2759C1.59809 10.9685 1.60456 10.6425 1.7027 10.3387C1.80084 10.0349 1.9863 9.76679 2.23593 9.56778C2.48556 9.36876 2.78829 9.2477 3.10631 9.21971L8.93008 8.74986L11.1767 3.31303C11.2983 3.01672 11.5052 2.76327 11.7713 2.5849C12.0373 2.40652 12.3503 2.31128 12.6706 2.31128C12.9909 2.31128 13.304 2.40652 13.57 2.5849C13.836 2.76327 14.043 3.01672 14.1646 3.31303L16.4102 8.74986L22.2339 9.21971C22.5526 9.24666 22.8562 9.36705 23.1067 9.56579C23.3573 9.76453 23.5436 10.0328 23.6423 10.3369C23.7411 10.6411 23.7479 10.9676 23.6619 11.2756C23.5759 11.5837 23.4009 11.8594 23.1588 12.0684L23.1647 12.0674Z" fill="#D9D9D9"/>
</svg>
