<svg width="26" height="26" viewBox="0 0 26 26" fill="none" xmlns="http://www.w3.org/2000/svg">
<path d="M23.1262 11.7981L18.6843 15.631L20.0376 21.3629C20.1123 21.6741 20.093 22.0004 19.9823 22.3007C19.8717 22.6009 19.6745 22.8616 19.4157 23.0498C19.1569 23.238 18.8481 23.3453 18.5284 23.3582C18.2087 23.371 17.8923 23.2888 17.6193 23.1219L12.6345 20.0541L7.6468 23.1219C7.3738 23.2878 7.05781 23.3693 6.73862 23.356C6.41943 23.3427 6.11132 23.2352 5.85308 23.0471C5.59483 22.8591 5.39801 22.5988 5.28738 22.2991C5.17676 21.9994 5.15729 21.6737 5.23141 21.3629L6.58963 15.631L2.14778 11.7981C1.90624 11.5894 1.73155 11.3141 1.64553 11.0067C1.55952 10.6992 1.56598 10.3732 1.66412 10.0694C1.76226 9.76565 1.94773 9.4975 2.19736 9.29849C2.44698 9.09947 2.74971 8.97841 3.06773 8.95042L8.8915 8.48057L11.1381 3.04374C11.2597 2.74744 11.4667 2.49399 11.7327 2.31561C11.9987 2.13723 12.3118 2.04199 12.632 2.04199C12.9523 2.04199 13.2654 2.13723 13.5314 2.31561C13.7974 2.49399 14.0044 2.74744 14.126 3.04374L16.3716 8.48057L22.1954 8.95042C22.514 8.97737 22.8176 9.09776 23.0682 9.2965C23.3187 9.49524 23.505 9.76349 23.6038 10.0677C23.7025 10.3718 23.7093 10.6984 23.6233 11.0064C23.5373 11.3144 23.3623 11.5901 23.1202 11.7991L23.1262 11.7981Z" fill="#353535"/>
</svg>
