<svg width="82" height="82" viewBox="0 0 82 82" fill="none" xmlns="http://www.w3.org/2000/svg">
<path d="M33.825 68.0602H34.5798L34.5761 60.6614H3.13454C1.40926 60.6724 0.0112322 62.0558 0 63.763V68.0602C0.899821 67.891 1.82571 68.1264 2.53219 68.7041C3.23494 69.278 3.64399 70.1352 3.64399 71.0403C3.64399 71.9454 3.23497 72.8027 2.53219 73.3803C1.82571 73.9579 0.899907 74.1934 0 74.0242V81.423H34.5761V74.0242C33.7357 74.2155 32.8508 74.0426 32.1443 73.5532C31.4378 73.0639 30.973 72.3023 30.8652 71.4524C30.7611 70.6062 31.0213 69.7526 31.5828 69.1088C32.148 68.4612 32.9586 68.0786 33.825 68.0602ZM12.7237 74.0241H9.70816C8.05722 74.002 6.73354 72.6738 6.73354 71.0403C6.73354 69.4104 8.05722 68.0822 9.70816 68.0601H12.7237C14.3709 68.0822 15.6909 69.4104 15.6909 71.0403C15.6909 72.6702 14.3709 74.0019 12.7237 74.0241ZM24.7821 74.0241H21.7666C20.1156 74.002 18.7919 72.6738 18.7919 71.0403C18.7919 69.4104 20.1156 68.0822 21.7666 68.0601H24.7821H24.7784C26.4256 68.0822 27.7493 69.4104 27.7493 71.0403C27.7493 72.6702 26.4256 74.0019 24.7784 74.0241H24.7821ZM57.1536 67.4017H64.8691V81.4194L57.1536 81.4231V67.4017ZM81.419 45.0908V81.4185L70.8997 81.4221V64.4206C70.896 62.7723 69.55 61.4404 67.8842 61.4368H54.1381H54.1418C52.476 61.4404 51.13 62.7723 51.1263 64.4206V81.4221H40.607V54.9944C40.607 54.2512 40.9937 53.5632 41.6295 53.1732L57.6963 43.2686V43.2723C58.3656 42.8529 59.2096 42.8308 59.9013 43.2097C60.5891 43.5887 61.0168 44.3098 61.013 45.0898V49.9537C61.0168 50.73 61.4444 51.4474 62.1323 51.8264C62.8201 52.2016 63.6605 52.1832 64.3298 51.7712L78.1063 43.2724C78.7719 42.853 79.6159 42.8309 80.3075 43.2098C80.9991 43.5888 81.4268 44.3099 81.4231 45.0899L81.419 45.0908ZM24.3357 30.4769H11.2845C11.6265 28.4092 10.8494 24.4725 14.0285 24.421H21.5655H21.5618C22.8521 24.4136 23.9267 25.3886 24.0345 26.6579L24.3357 30.4769ZM26.0535 52.7576H9.53654L10.8342 36.4407H24.7926L26.0535 52.7576ZM29.8053 55.2925V60.6751H5.79222V55.2887C5.7885 54.6228 6.0525 53.979 6.52472 53.5007C7.00066 53.0261 7.64765 52.7575 8.32434 52.7538H27.243C28.6559 52.7575 29.8011 53.8907 29.8048 55.2888L29.8053 55.2925ZM20.5245 9.67434C21.8147 9.22916 23.2239 9.24388 24.503 9.72217C24.6592 6.83771 26.3287 4.24391 28.9018 2.87897C31.4785 1.51769 34.5871 1.58391 37.0969 3.05925C40.0157 0.115929 44.4367 -0.800221 48.3034 0.733979C52.1704 2.27185 54.7211 5.9584 54.7695 10.0827C54.7211 14.2034 52.1704 17.8899 48.3034 19.4278C44.4363 20.9657 40.0153 20.0496 37.0969 17.1063C34.4383 18.692 31.1067 18.681 28.4593 17.0768C27.9127 18.7876 26.4961 20.0901 24.7299 20.5021C22.9637 20.9142 21.112 20.3733 19.8515 19.082C18.1336 18.0481 17.1445 16.157 17.2896 14.174C17.4309 12.1946 18.6802 10.458 20.5245 9.67434Z" fill="#868686"/>
</svg>
