<svg width="79" height="79" viewBox="0 0 79 79" fill="none" xmlns="http://www.w3.org/2000/svg">
<path d="M77.6194 25.7271L59.2442 40.167C56.9473 41.956 53.6295 41.8282 51.5878 39.6558C49.5461 37.6112 49.2909 34.2887 51.0774 31.9885L65.6241 13.7146C66.0069 13.2034 65.3688 12.4367 64.8584 12.9478L46.3558 27.2601C44.0589 29.0492 40.7411 28.9213 38.6994 26.749C36.6577 24.7044 36.4025 21.3819 38.189 19.0817L52.6083 0.9353C52.9911 0.424146 52.353 -0.342584 51.715 0.168569L28.7459 18.5701C27.3422 19.7202 26.3214 21.2536 25.8109 23.0427C25.0453 26.2374 25.8109 29.8155 28.3631 32.3711L33.9777 37.9938L0.800174 73.6469C-0.348239 74.797 -0.220673 76.7139 0.92778 77.8639C2.07619 78.8862 3.99032 78.8862 5.13873 77.7361L40.741 44.5112L46.1004 49.8783C49.5458 53.3286 55.0333 53.7119 58.9884 50.7728C59.4989 50.3895 60.0093 49.8783 60.5197 49.2394L78.5119 26.365C78.8947 25.9817 78.1291 25.3427 77.6186 25.7261L77.6194 25.7271Z" fill="#868686"/>
</svg>
