<svg width="80" height="80" viewBox="0 0 80 80" fill="none" xmlns="http://www.w3.org/2000/svg">
<path d="M78.158 26.5347L59.7827 40.9746C57.4858 42.7636 54.1681 42.6358 52.1264 40.4634C50.0847 38.4188 49.8295 35.0963 51.616 32.7961L66.1626 14.5222C66.5454 14.011 65.9074 13.2443 65.397 13.7554L46.8943 28.0677C44.5974 29.8568 41.2797 29.729 39.238 27.5566C37.1963 25.512 36.9411 22.1895 38.7276 19.8893L53.1468 1.74292C53.5296 1.23176 52.8916 0.465033 52.2535 0.976187L29.2845 19.3777C27.8808 20.5278 26.8599 22.0612 26.3495 23.8504C25.5839 27.045 26.3495 30.6231 28.9016 33.1787L34.5163 38.8014L1.33875 74.4546C0.190336 75.6046 0.317901 77.5215 1.46635 78.6715C2.61477 79.6938 4.5289 79.6938 5.67731 78.5438L41.2796 45.3188L46.639 50.6859C50.0844 54.1362 55.5718 54.5195 59.527 51.5804C60.0374 51.1971 60.5479 50.6859 61.0583 50.047L79.0505 27.1726C79.4333 26.7893 78.6677 26.1503 78.1572 26.5337L78.158 26.5347Z" fill="#353535"/>
</svg>
