<svg width="58" height="79" viewBox="0 0 58 79" fill="none" xmlns="http://www.w3.org/2000/svg">
<path d="M51.6634 56.5072C47.8795 52.3908 42.6586 49.6519 36.9619 48.7945C36.8452 48.7641 36.7419 48.6957 36.6683 48.6003C36.5946 48.5048 36.5547 48.3875 36.5549 48.2669V45.4689C36.7529 45.4838 36.9523 45.4935 37.1541 45.4935C39.2401 45.4935 41.2406 44.6648 42.7156 43.1898C44.1906 41.7148 45.0193 39.7143 45.0193 37.6283C45.0193 37.5344 45.0177 37.4409 45.0144 37.3478L45.0089 37.2652C45.0365 37.2622 45.064 37.2591 45.0916 37.2558L45.1387 37.253C46.7309 37.0591 48.2359 36.419 49.48 35.4067C50.7242 34.3943 51.6568 33.0509 52.1703 31.5313C52.6838 30.0118 52.7574 28.378 52.3824 26.8185C52.0074 25.2589 51.1992 23.8372 50.051 22.7172L49.9813 22.6211L50.2238 22.2297C50.9884 20.9007 51.2123 19.3285 50.8491 17.8389C50.4859 16.3493 49.5635 15.0566 48.273 14.2288L48.2416 14.2103C48.4914 12.4444 48.3593 10.6454 47.8543 8.93492C47.3493 7.22443 46.483 5.64223 45.3141 4.29519C44.1452 2.94816 42.7008 1.86767 41.0786 1.12668C39.4563 0.385704 37.6939 0.00149605 35.9104 1.14595e-05C32.6962 -0.00435327 29.6056 1.23828 27.2891 3.4664L27.2551 3.49947C25.1746 2.86547 22.9682 2.76374 20.8382 3.20362C18.7082 3.64349 16.7226 4.61088 15.0634 6.01717C13.4042 7.42345 12.1245 9.22364 11.3415 11.2528C10.5585 13.2819 10.2972 15.4751 10.5817 17.6314L10.5846 17.6538C9.73707 18.4495 9.14012 19.4752 8.86694 20.6052C8.59376 21.7352 8.65622 22.9203 9.04667 24.0153L9.03628 24.0506C8.37882 25.0263 7.93077 26.1277 7.72044 27.2852C7.51011 28.4428 7.54206 29.6314 7.81428 30.776C8.08649 31.9206 8.59305 32.9963 9.30198 33.9352C10.0109 34.8742 10.9068 35.6559 11.9331 36.2312L11.9228 36.2914C11.7136 37.5332 11.8058 38.807 12.1914 40.0057C12.5771 41.2044 13.245 42.2929 14.1389 43.1798C15.0329 44.0666 16.1268 44.7257 17.3286 45.1017C18.5304 45.4777 19.8049 45.5595 21.0449 45.3404V48.267C21.045 48.3876 21.0051 48.5048 20.9315 48.6003C20.8578 48.6958 20.7545 48.7641 20.6378 48.7946C14.9411 49.6519 9.72029 52.3908 5.93638 56.5072C2.10822 60.6717 0 65.9948 0 71.4958V78.469C2.19802e-06 78.5078 0.015423 78.545 0.0428731 78.5725C0.0703233 78.5999 0.107554 78.6154 0.146378 78.6154H57.4534C57.4922 78.6154 57.5294 78.5999 57.5569 78.5725C57.5843 78.545 57.5998 78.5078 57.5998 78.469V71.4958C57.5998 65.9947 55.4916 60.6717 51.6634 56.5072ZM43.1766 29.0973C43.0252 30.2186 42.4726 31.2471 41.6211 31.9923C40.7697 32.7375 39.6771 33.149 38.5456 33.1505H35.462C34.5584 33.1513 33.6743 32.8885 32.9179 32.3943C32.8553 32.3342 32.814 32.2961 32.8023 32.2855C32.7758 32.2616 32.7414 32.2482 32.7057 32.248C32.1119 31.8148 31.6288 31.2474 31.2957 30.5922C30.9625 29.9369 30.7888 29.2123 30.7887 28.4772V28.2015C30.7893 27.5763 31.038 26.977 31.48 26.5349C31.9221 26.0929 32.5214 25.8442 33.1466 25.8436H40.8611C41.4093 25.8443 41.9401 26.0358 42.3626 26.3851C42.7851 26.7344 43.0729 27.2198 43.1766 27.7581V29.0973ZM43.4693 25.1043H43.6743C44.3415 25.1043 44.9814 25.3693 45.4531 25.8411C45.9249 26.3129 46.19 26.9528 46.19 27.62V29.1838C46.19 29.8983 45.9061 30.5836 45.4009 31.0889C44.8956 31.5942 44.2103 31.878 43.4958 31.878H43.4694L43.4693 25.1043ZM15.4013 25.1322C18.2108 25.7872 21.6568 22.0518 26.0182 20.8816C30.3238 19.7263 33.7673 18.6406 34.5061 15.5897C34.5061 15.5897 35.6988 20.8284 39.8249 21.5382C43.7775 22.2182 42.1808 22.8731 43.1766 24.8379V27.0371C42.9606 26.6081 42.6298 26.2474 42.221 25.9952C41.8122 25.743 41.3414 25.6092 40.8611 25.6087H33.1466C32.4632 25.6095 31.8078 25.8798 31.3225 26.3609C30.8372 26.8419 30.5612 27.495 30.5544 28.1783C29.5785 27.4191 28.4903 27.9295 28.0375 28.2082V28.2014C28.0368 27.514 27.7634 26.855 27.2773 26.369C26.7912 25.8829 26.1322 25.6095 25.4448 25.6087H17.7303C17.2449 25.6092 16.7694 25.7457 16.3577 26.0028C15.946 26.2599 15.6147 26.6273 15.4014 27.0633L15.4013 25.1322ZM15.4013 27.8329C15.4898 27.2787 15.7727 26.774 16.1995 26.4095C16.6263 26.0449 17.169 25.8443 17.7302 25.8436H25.4448C26.0699 25.8442 26.6692 26.0929 27.1113 26.5349C27.5533 26.977 27.802 27.5763 27.8027 28.2015V28.4772C27.8025 29.2123 27.6288 29.937 27.2956 30.5923C26.9624 31.2476 26.4792 31.8149 25.8853 32.2482C25.8655 32.2466 25.8455 32.249 25.8266 32.2555C25.8078 32.2619 25.7904 32.2721 25.7757 32.2855C25.7623 32.2976 25.7118 32.344 25.6333 32.4201C24.8856 32.8978 24.0166 33.1513 23.1293 33.1506H20.0457C18.8959 33.1491 17.7869 32.7243 16.9303 31.9573C16.0737 31.1903 15.5294 30.1348 15.4014 28.9922L15.4013 27.8329ZM15.1086 31.878H15.0994C14.3849 31.878 13.6996 31.5942 13.1943 31.0889C12.689 30.5836 12.4052 29.8983 12.4052 29.1838V27.62C12.4052 27.2896 12.4702 26.9625 12.5967 26.6573C12.7231 26.3521 12.9084 26.0747 13.142 25.8411C13.3756 25.6075 13.6529 25.4222 13.9581 25.2958C14.2634 25.1694 14.5905 25.1043 14.9208 25.1043H15.1085L15.1086 31.878ZM15.4014 33.8463V30.0613C15.7329 31.03 16.3586 31.8711 17.1913 32.467C18.0239 33.0629 19.0218 33.384 20.0457 33.3854H23.1293C23.8084 33.3858 24.4802 33.2444 25.1016 32.9702C24.2667 33.8851 22.9108 35.6124 22.521 37.5359C22.5172 37.5548 22.5171 37.5742 22.5208 37.593C22.5245 37.6119 22.5318 37.6298 22.5425 37.6459C22.5531 37.6619 22.5667 37.6756 22.5827 37.6864C22.5986 37.6971 22.6165 37.7046 22.6353 37.7084C22.6542 37.7122 22.6736 37.7123 22.6924 37.7086C22.7113 37.7049 22.7293 37.6976 22.7453 37.687C22.7613 37.6763 22.7751 37.6627 22.7858 37.6467C22.7965 37.6308 22.804 37.6129 22.8078 37.5941C23.3519 34.9096 25.9464 32.526 25.9726 32.5022C25.9889 32.4871 26.0016 32.4685 26.0097 32.4477C26.6221 32.0039 27.1236 31.4244 27.475 30.7545C27.8263 30.0847 28.0179 29.3426 28.0348 28.5864C28.2882 28.3999 28.5719 28.2586 28.8735 28.1688C29.52 27.9826 30.0832 28.1237 30.5472 28.5879L30.5564 28.5787C30.572 29.3326 30.7613 30.0727 31.1094 30.7415C31.4576 31.4103 31.9553 31.9899 32.5639 32.435C32.5712 32.4608 32.5856 32.4841 32.6054 32.5022C32.6316 32.526 35.2261 34.9097 35.7702 37.5941C35.7779 37.6321 35.8004 37.6655 35.8328 37.687C35.8488 37.6976 35.8667 37.7049 35.8856 37.7086C35.9045 37.7123 35.9238 37.7122 35.9427 37.7084C35.9615 37.7046 35.9794 37.6971 35.9953 37.6864C36.0113 37.6757 36.025 37.6619 36.0356 37.6459C36.0462 37.6299 36.0535 37.6119 36.0572 37.593C36.0609 37.5742 36.0608 37.5548 36.057 37.536C35.6656 35.6049 34.3008 33.872 33.4668 32.9599C34.0944 33.2408 34.7744 33.3858 35.462 33.3854H38.5456C39.5624 33.3841 40.5538 33.0675 41.3832 32.4793C42.2126 31.891 42.8392 31.06 43.1766 30.1008V33.8464C43.1766 40.3293 37.9024 45.6035 31.4195 45.6035H27.1584C20.6755 45.6034 15.4014 40.3292 15.4014 33.8463ZM28.7999 56.4923C26.4806 56.493 24.2037 55.8716 22.2063 54.6928C20.209 53.514 18.5644 51.8211 17.444 49.7904C18.5089 49.4841 19.5928 49.2478 20.6886 49.0829C20.6932 49.0822 20.6978 49.0814 20.7024 49.0802C20.8839 49.0351 21.0451 48.9306 21.1603 48.7831C21.2754 48.6357 21.3379 48.454 21.3377 48.2669V47.8052C22.7288 49.3046 26.0616 49.8865 29.6823 49.0824C32.7071 48.4106 35.1731 46.9487 36.2621 45.3511V48.2669C36.2619 48.454 36.3243 48.6357 36.4395 48.7831C36.5546 48.9306 36.7158 49.0352 36.8974 49.0802C36.9019 49.0814 36.9065 49.0823 36.9111 49.0829C38.0068 49.2478 39.0906 49.4841 40.1556 49.7903C39.0352 51.821 37.3906 53.5139 35.3933 54.6927C33.396 55.8715 31.1191 56.493 28.7999 56.4923Z" fill="#868686"/>
<path d="M28.8608 32.9869H29.6715C29.9523 32.9865 30.2214 32.8749 30.4199 32.6764C30.6184 32.4779 30.7301 32.2087 30.7304 31.928C30.7304 31.8892 30.715 31.8519 30.6875 31.8245C30.6601 31.797 30.6228 31.7816 30.584 31.7816C30.5452 31.7816 30.5079 31.797 30.4805 31.8245C30.453 31.8519 30.4376 31.8892 30.4376 31.928C30.4374 32.1311 30.3566 32.3258 30.213 32.4694C30.0694 32.613 29.8746 32.6938 29.6715 32.6941H28.8608C28.6577 32.6938 28.463 32.613 28.3194 32.4694C28.1758 32.3258 28.095 32.1311 28.0948 31.928C28.0945 31.8894 28.079 31.8524 28.0515 31.8252C28.0241 31.798 27.987 31.7827 27.9484 31.7827C27.9098 31.7827 27.8727 31.798 27.8453 31.8252C27.8178 31.8524 27.8023 31.8894 27.802 31.928C27.8023 32.2087 27.914 32.4779 28.1124 32.6764C28.3109 32.8749 28.58 32.9865 28.8608 32.9869Z" fill="#868686"/>
<path d="M23.076 28.9176C23.4479 28.9176 23.7494 28.4302 23.7494 27.829C23.7494 27.2278 23.4479 26.7405 23.076 26.7405C22.704 26.7405 22.4026 27.2279 22.4026 27.829C22.4026 28.4302 22.7041 28.9176 23.076 28.9176Z" fill="#868686"/>
<path d="M20.2909 25.513C20.3085 25.5207 20.3275 25.5248 20.3467 25.5252C20.3659 25.5255 20.385 25.5221 20.4029 25.515C20.4208 25.508 20.4371 25.4975 20.4509 25.4841C20.4648 25.4708 20.4758 25.4548 20.4835 25.4372C20.7988 24.7144 21.3879 24.1463 22.1216 23.8574C22.8554 23.5685 23.6737 23.5824 24.3972 23.8961C24.4148 23.9038 24.4337 23.9079 24.453 23.9082C24.4722 23.9086 24.4913 23.9051 24.5092 23.8981C24.527 23.8911 24.5434 23.8806 24.5572 23.8672C24.571 23.8539 24.5821 23.8379 24.5897 23.8203C24.5974 23.8027 24.6015 23.7837 24.6019 23.7645C24.6022 23.7453 24.5987 23.7262 24.5917 23.7083C24.5847 23.6904 24.5742 23.6741 24.5608 23.6603C24.5475 23.6464 24.5315 23.6354 24.5139 23.6277C23.7192 23.2832 22.8204 23.2679 22.0145 23.5852C21.2086 23.9025 20.5614 24.5266 20.215 25.3204C20.2074 25.3381 20.2032 25.357 20.2029 25.3762C20.2026 25.3955 20.206 25.4145 20.2131 25.4324C20.2201 25.4503 20.2306 25.4666 20.244 25.4805C20.2573 25.4943 20.2732 25.5053 20.2909 25.513Z" fill="#868686"/>
<path d="M35.4554 28.9176C35.8273 28.9176 36.1287 28.4302 36.1287 27.829C36.1287 27.2278 35.8273 26.7405 35.4554 26.7405C35.0835 26.7405 34.782 27.2278 34.782 27.829C34.782 28.4302 35.0835 28.9176 35.4554 28.9176Z" fill="#868686"/>
<path d="M34.1347 23.8961C34.8581 23.5825 35.6765 23.5685 36.4101 23.8574C37.1438 24.1464 37.7329 24.7145 38.0483 25.4372C38.0638 25.4728 38.0928 25.5008 38.1289 25.515C38.165 25.5292 38.2053 25.5285 38.2409 25.513C38.2764 25.4975 38.3044 25.4685 38.3186 25.4324C38.3329 25.3963 38.3322 25.356 38.3167 25.3204C37.9703 24.5266 37.3232 23.9026 36.5173 23.5852C35.7114 23.2679 34.8126 23.2832 34.0179 23.6277C33.9824 23.6432 33.9545 23.6722 33.9403 23.7083C33.9261 23.7444 33.9269 23.7846 33.9423 23.8202C33.9578 23.8558 33.9867 23.8837 34.0228 23.898C34.0589 23.9122 34.0991 23.9115 34.1347 23.8961Z" fill="#868686"/>
<path d="M32.5134 36.9033C32.5249 36.8877 32.5332 36.8701 32.5378 36.8514C32.5424 36.8326 32.5433 36.8132 32.5404 36.7941C32.5375 36.775 32.5309 36.7567 32.5208 36.7402C32.5108 36.7237 32.4976 36.7093 32.482 36.698C32.4665 36.6866 32.4488 36.6784 32.43 36.6739C32.4112 36.6694 32.3918 36.6686 32.3727 36.6716C32.3536 36.6747 32.3354 36.6814 32.3189 36.6916C32.3025 36.7017 32.2882 36.715 32.277 36.7306C31.7257 37.4851 30.6563 37.9006 29.2657 37.9006C27.8753 37.9006 26.806 37.4853 26.2547 36.7309C26.2318 36.6996 26.1974 36.6786 26.1591 36.6727C26.1207 36.6667 26.0816 36.6762 26.0502 36.6991C26.0189 36.722 25.9979 36.7564 25.992 36.7948C25.986 36.8331 25.9955 36.8723 26.0184 36.9036C26.6262 37.7354 27.7794 38.1935 29.2657 38.1935C30.7521 38.1934 31.9055 37.7352 32.5134 36.9033Z" fill="#868686"/>
</svg>
