<svg width="58" height="80" viewBox="0 0 58 80" fill="none" xmlns="http://www.w3.org/2000/svg">
<path d="M52.0481 57.3148C48.2642 53.1984 43.0434 50.4595 37.3466 49.6022C37.23 49.5717 37.1267 49.5034 37.053 49.4079C36.9794 49.3124 36.9395 49.1951 36.9397 49.0746V46.2765C37.1377 46.2914 37.3371 46.3011 37.5389 46.3011C39.6249 46.3011 41.6254 45.4724 43.1004 43.9974C44.5754 42.5224 45.4041 40.5219 45.4041 38.4359C45.4041 38.342 45.4024 38.2485 45.3991 38.1554L45.3936 38.0729C45.4212 38.0698 45.4488 38.0667 45.4764 38.0634L45.5235 38.0606C47.1157 37.8667 48.6207 37.2267 49.8648 36.2143C51.1089 35.2019 52.0416 33.8585 52.5551 32.3389C53.0686 30.8194 53.1421 29.1856 52.7671 27.6261C52.3922 26.0665 51.584 24.6448 50.4358 23.5248L50.366 23.4287L50.6086 23.0373C51.3732 21.7083 51.5971 20.1361 51.2339 18.6465C50.8707 17.157 49.9482 15.8643 48.6577 15.0364L48.6264 15.0179C48.8762 13.252 48.7441 11.453 48.2391 9.74254C47.734 8.03204 46.8678 6.44984 45.6989 5.10281C44.53 3.75578 43.0856 2.67528 41.4633 1.9343C39.841 1.19332 38.0786 0.809113 36.2951 0.807629C33.081 0.803264 29.9904 2.04589 27.6739 4.27402L27.6399 4.30709C25.5593 3.67309 23.353 3.57136 21.223 4.01123C19.0929 4.4511 17.1073 5.4185 15.4482 6.82478C13.789 8.23107 12.5093 10.0313 11.7263 12.0604C10.9432 14.0895 10.682 16.2827 10.9665 18.439L10.9694 18.4614C10.1218 19.2571 9.52488 20.2828 9.2517 21.4128C8.97852 22.5428 9.04099 23.7279 9.43143 24.8229L9.42105 24.8583C8.76358 25.8339 8.31554 26.9353 8.10521 28.0929C7.89488 29.2504 7.92683 30.439 8.19904 31.5836C8.47125 32.7282 8.97782 33.8039 9.68675 34.7429C10.3957 35.6818 11.2916 36.4636 12.3179 37.0388L12.3076 37.0991C12.0984 38.3408 12.1905 39.6146 12.5762 40.8133C12.9618 42.012 13.6297 43.1006 14.5237 43.9874C15.4177 44.8742 16.5116 45.5333 17.7134 45.9093C18.9151 46.2853 20.1896 46.3672 21.4296 46.148V49.0746C21.4298 49.1952 21.3899 49.3124 21.3162 49.4079C21.2426 49.5034 21.1393 49.5717 21.0226 49.6022C15.3258 50.4596 10.1051 53.1984 6.32115 57.3148C2.49299 61.4793 0.384766 66.8024 0.384766 72.3034V79.2766C0.384768 79.3154 0.400189 79.3527 0.427639 79.3801C0.455089 79.4076 0.49232 79.423 0.531144 79.423H57.8381C57.877 79.423 57.9142 79.4076 57.9416 79.3801C57.9691 79.3527 57.9845 79.3154 57.9845 79.2766V72.3034C57.9845 66.8023 55.8763 61.4793 52.0481 57.3148ZM43.5614 29.9049C43.4099 31.0262 42.8574 32.0547 42.0059 32.7999C41.1545 33.5452 40.0618 33.9566 38.9303 33.9582H35.8467C34.9432 33.9589 34.0591 33.6961 33.3026 33.2019C33.24 33.1418 33.1987 33.1038 33.187 33.0931C33.1605 33.0692 33.1262 33.0558 33.0905 33.0556C32.4967 32.6224 32.0136 32.055 31.6804 31.3998C31.3473 30.7445 31.1736 30.0199 31.1734 29.2848V29.0091C31.1741 28.3839 31.4228 27.7846 31.8648 27.3425C32.3068 26.9005 32.9062 26.6519 33.5313 26.6512H41.2459C41.794 26.6519 42.3249 26.8434 42.7474 27.1927C43.1698 27.542 43.4576 28.0274 43.5614 28.5657V29.9049ZM43.8541 25.9119H44.0591C44.7263 25.9119 45.3661 26.177 45.8379 26.6487C46.3097 27.1205 46.5747 27.7604 46.5747 28.4276V29.9914C46.5747 30.7059 46.2909 31.3912 45.7856 31.8965C45.2804 32.4018 44.5951 32.6856 43.8805 32.6857H43.8541L43.8541 25.9119ZM15.7861 25.9398C18.5956 26.5948 22.0416 22.8595 26.403 21.6892C30.7086 20.5339 34.152 19.4482 34.8909 16.3973C34.8909 16.3973 36.0836 21.636 40.2097 22.3458C44.1623 23.0258 42.5656 23.6807 43.5613 25.6456V27.8448C43.3454 27.4157 43.0146 27.055 42.6058 26.8028C42.197 26.5506 41.7262 26.4168 41.2458 26.4163H33.5313C32.848 26.4171 32.1926 26.6874 31.7073 27.1685C31.222 27.6496 30.946 28.3026 30.9392 28.9859C29.9633 28.2267 28.875 28.7371 28.4223 29.0158V29.0091C28.4215 28.3217 28.1481 27.6626 27.6621 27.1766C27.176 26.6905 26.517 26.4171 25.8296 26.4163H18.115C17.6297 26.4168 17.1542 26.5533 16.7425 26.8104C16.3308 27.0676 15.9995 27.435 15.7861 27.8709L15.7861 25.9398ZM15.7861 28.6406C15.8745 28.0863 16.1575 27.5816 16.5843 27.2171C17.011 26.8525 17.5537 26.6519 18.115 26.6512H25.8295C26.4547 26.6519 27.054 26.9005 27.4961 27.3426C27.9381 27.7846 28.1867 28.3839 28.1874 29.0091V29.2848C28.1873 30.0199 28.0135 30.7446 27.6803 31.3999C27.3472 32.0552 26.864 32.6226 26.2701 33.0558C26.2502 33.0542 26.2303 33.0567 26.2114 33.0631C26.1925 33.0695 26.1752 33.0797 26.1605 33.0931C26.1471 33.1053 26.0966 33.1516 26.0181 33.2277C25.2703 33.7054 24.4014 33.9589 23.514 33.9582H20.4305C19.2807 33.9567 18.1717 33.5319 17.315 32.7649C16.4584 31.9979 15.9142 30.9424 15.7861 29.7998L15.7861 28.6406ZM15.4933 32.6857H15.4842C14.7696 32.6857 14.0843 32.4018 13.5791 31.8965C13.0738 31.3912 12.7899 30.7059 12.7899 29.9914V28.4276C12.7899 28.0972 12.855 27.7701 12.9814 27.4649C13.1078 27.1597 13.2932 26.8823 13.5268 26.6487C13.7604 26.4151 14.0377 26.2298 14.3429 26.1034C14.6481 25.977 14.9753 25.9119 15.3056 25.9119H15.4933L15.4933 32.6857ZM15.7861 34.654V30.8689C16.1176 31.8376 16.7434 32.6787 17.576 33.2746C18.4086 33.8705 19.4066 34.1916 20.4305 34.193H23.514C24.1932 34.1934 24.865 34.052 25.4864 33.7778C24.6515 34.6927 23.2956 36.42 22.9058 38.3436C22.9019 38.3624 22.9019 38.3818 22.9056 38.4006C22.9092 38.4195 22.9166 38.4375 22.9272 38.4535C22.9378 38.4695 22.9515 38.4833 22.9674 38.494C22.9834 38.5047 23.0013 38.5122 23.0201 38.516C23.0389 38.5198 23.0583 38.5199 23.0772 38.5162C23.0961 38.5126 23.114 38.5052 23.13 38.4946C23.1461 38.484 23.1598 38.4703 23.1706 38.4544C23.1813 38.4384 23.1888 38.4205 23.1926 38.4017C23.7367 35.7173 26.3312 33.3336 26.3573 33.3098C26.3737 33.2947 26.3864 33.2761 26.3944 33.2553C27.0069 32.8115 27.5084 32.232 27.8597 31.5621C28.211 30.8923 28.4026 30.1502 28.4195 29.394C28.6729 29.2075 28.9567 29.0663 29.2582 28.9764C29.9047 28.7902 30.4679 28.9313 30.932 29.3955L30.9412 29.3863C30.9568 30.1402 31.146 30.8803 31.4942 31.5491C31.8424 32.2179 32.3401 32.7975 32.9486 33.2427C32.956 33.2685 32.9704 33.2917 32.9902 33.3098C33.0163 33.3336 35.6108 35.7173 36.155 38.4017C36.1627 38.4397 36.1852 38.4731 36.2175 38.4946C36.2335 38.5052 36.2515 38.5126 36.2704 38.5162C36.2892 38.5199 36.3086 38.5199 36.3274 38.516C36.3463 38.5122 36.3642 38.5047 36.3801 38.494C36.3961 38.4833 36.4097 38.4695 36.4203 38.4535C36.431 38.4375 36.4383 38.4195 36.442 38.4007C36.4457 38.3818 36.4456 38.3624 36.4418 38.3436C36.0504 36.4125 34.6856 34.6796 33.8516 33.7675C34.4792 34.0484 35.1591 34.1934 35.8467 34.193H38.9303C39.9472 34.1917 40.9386 33.8751 41.768 33.2869C42.5974 32.6986 43.2239 31.8677 43.5614 30.9085V34.654C43.5614 41.1369 38.2872 46.4111 31.8043 46.4111H27.5432C21.0603 46.411 15.7861 41.1368 15.7861 34.654ZM29.1846 57.2999C26.8654 57.3006 24.5884 56.6792 22.5911 55.5004C20.5937 54.3216 18.9491 52.6287 17.8287 50.598C18.8937 50.2918 19.9776 50.0554 21.0734 49.8905C21.078 49.8899 21.0826 49.889 21.0871 49.8878C21.2687 49.8428 21.4299 49.7382 21.545 49.5908C21.6602 49.4434 21.7226 49.2616 21.7224 49.0746V48.6128C23.1136 50.1122 26.4463 50.6941 30.0671 49.89C33.0919 49.2183 35.5579 47.7563 36.6469 46.1587V49.0746C36.6466 49.2616 36.7091 49.4433 36.8242 49.5908C36.9394 49.7382 37.1006 49.8428 37.2821 49.8878C37.2866 49.889 37.2912 49.8899 37.2958 49.8905C38.3916 50.0554 39.4754 50.2917 40.5403 50.598C39.42 52.6286 37.7754 54.3216 35.7781 55.5003C33.7808 56.6791 31.5039 57.3006 29.1846 57.2999Z" fill="#F8EAB8"/>
<path d="M29.2453 33.7945H30.0561C30.3368 33.7941 30.6059 33.6825 30.8044 33.484C31.0029 33.2855 31.1146 33.0164 31.1149 32.7356C31.1149 32.6968 31.0995 32.6596 31.072 32.6321C31.0446 32.6047 31.0074 32.5892 30.9685 32.5892C30.9297 32.5892 30.8925 32.6047 30.865 32.6321C30.8376 32.6596 30.8221 32.6968 30.8221 32.7356C30.8219 32.9387 30.7411 33.1334 30.5975 33.2771C30.4539 33.4207 30.2592 33.5015 30.0561 33.5017H29.2453C29.0422 33.5014 28.8475 33.4207 28.7039 33.277C28.5603 33.1334 28.4795 32.9387 28.4793 32.7356C28.479 32.697 28.4635 32.66 28.4361 32.6328C28.4086 32.6056 28.3716 32.5903 28.3329 32.5903C28.2943 32.5903 28.2572 32.6056 28.2298 32.6328C28.2024 32.66 28.1868 32.697 28.1865 32.7356C28.1868 33.0163 28.2985 33.2855 28.497 33.484C28.6954 33.6825 28.9646 33.7941 29.2453 33.7945Z" fill="#F8EAB8"/>
<path d="M23.4605 29.7252C23.8324 29.7252 24.1339 29.2379 24.1339 28.6367C24.1339 28.0355 23.8324 27.5481 23.4605 27.5481C23.0886 27.5481 22.7871 28.0355 22.7871 28.6367C22.7871 29.2379 23.0886 29.7252 23.4605 29.7252Z" fill="#F8EAB8"/>
<path d="M20.6759 26.3206C20.6935 26.3283 20.7125 26.3324 20.7317 26.3328C20.7509 26.3331 20.77 26.3297 20.7879 26.3227C20.8058 26.3156 20.8221 26.3051 20.8359 26.2918C20.8498 26.2784 20.8608 26.2624 20.8685 26.2448C21.1838 25.5221 21.7729 24.9539 22.5067 24.665C23.2404 24.3761 24.0587 24.39 24.7822 24.7037C24.7998 24.7114 24.8188 24.7155 24.838 24.7159C24.8572 24.7162 24.8763 24.7128 24.8942 24.7057C24.912 24.6987 24.9284 24.6882 24.9422 24.6748C24.956 24.6615 24.9671 24.6455 24.9747 24.6279C24.9824 24.6103 24.9865 24.5913 24.9869 24.5721C24.9872 24.5529 24.9838 24.5338 24.9767 24.5159C24.9697 24.498 24.9592 24.4817 24.9458 24.4679C24.9325 24.4541 24.9165 24.443 24.8989 24.4353C24.1043 24.0908 23.2054 24.0755 22.3995 24.3928C21.5936 24.7102 20.9464 25.3342 20.6 26.128C20.5924 26.1457 20.5883 26.1646 20.5879 26.1839C20.5876 26.2031 20.591 26.2222 20.5981 26.24C20.6051 26.2579 20.6156 26.2743 20.629 26.2881C20.6423 26.3019 20.6583 26.313 20.6759 26.3206Z" fill="#F8EAB8"/>
<path d="M35.8404 29.7252C36.2123 29.7252 36.5138 29.2379 36.5138 28.6367C36.5138 28.0355 36.2123 27.5481 35.8404 27.5481C35.4685 27.5481 35.167 28.0355 35.167 28.6367C35.167 29.2379 35.4685 29.7252 35.8404 29.7252Z" fill="#F8EAB8"/>
<path d="M34.5195 24.7037C35.2429 24.3901 36.0612 24.3762 36.7949 24.6651C37.5286 24.954 38.1177 25.5221 38.4331 26.2448C38.4485 26.2804 38.4775 26.3084 38.5136 26.3226C38.5497 26.3368 38.59 26.3361 38.6256 26.3206C38.6612 26.3051 38.6892 26.2761 38.7034 26.24C38.7176 26.2039 38.7169 26.1636 38.7014 26.128C38.3551 25.3342 37.708 24.7102 36.9021 24.3928C36.0962 24.0755 35.1973 24.0908 34.4027 24.4353C34.3672 24.4509 34.3392 24.4798 34.3251 24.5159C34.3109 24.552 34.3116 24.5923 34.3271 24.6278C34.3426 24.6634 34.3715 24.6913 34.4076 24.7056C34.4436 24.7198 34.4839 24.7191 34.5195 24.7037Z" fill="#F8EAB8"/>
<path d="M32.8981 37.7109C32.9096 37.6954 32.9179 37.6777 32.9226 37.659C32.9272 37.6403 32.9281 37.6208 32.9252 37.6017C32.9223 37.5826 32.9156 37.5643 32.9056 37.5478C32.8956 37.5313 32.8824 37.517 32.8668 37.5056C32.8512 37.4942 32.8335 37.486 32.8148 37.4815C32.796 37.477 32.7765 37.4762 32.7575 37.4792C32.7384 37.4823 32.7201 37.489 32.7037 37.4992C32.6873 37.5093 32.673 37.5226 32.6617 37.5382C32.1104 38.2927 31.041 38.7083 29.6505 38.7083C28.2601 38.7083 27.1908 38.2929 26.6395 37.5386C26.6166 37.5072 26.5822 37.4863 26.5438 37.4803C26.5055 37.4743 26.4663 37.4838 26.435 37.5067C26.4037 37.5296 26.3827 37.564 26.3767 37.6024C26.3708 37.6407 26.3803 37.6799 26.4032 37.7112C27.011 38.543 28.1642 39.0011 29.6505 39.0011C31.1368 39.001 32.2903 38.5428 32.8981 37.7109Z" fill="#F8EAB8"/>
</svg>
