<svg width="23" height="22" viewBox="0 0 23 22" fill="none" xmlns="http://www.w3.org/2000/svg">
<path d="M22.1262 9.79815L17.6843 13.631L19.0376 19.3629C19.1123 19.6741 19.093 20.0004 18.9823 20.3007C18.8717 20.6009 18.6745 20.8616 18.4157 21.0498C18.1569 21.238 17.8481 21.3453 17.5284 21.3582C17.2087 21.371 16.8923 21.2888 16.6193 21.1219L11.6345 18.0541L6.6468 21.1219C6.3738 21.2878 6.05781 21.3693 5.73862 21.356C5.41943 21.3427 5.11132 21.2352 4.85308 21.0471C4.59483 20.8591 4.39801 20.5988 4.28738 20.2991C4.17676 19.9994 4.15729 19.6737 4.23141 19.3629L5.58963 13.631L1.14778 9.79815C0.906236 9.58939 0.731549 9.3141 0.645533 9.00665C0.559516 8.69921 0.565982 8.37324 0.664122 8.06944C0.762262 7.76565 0.947728 7.4975 1.19736 7.29849C1.44698 7.09947 1.74971 6.97841 2.06773 6.95042L7.8915 6.48057L10.1381 1.04374C10.2597 0.747436 10.4667 0.493985 10.7327 0.31561C10.9987 0.137234 11.3118 0.0419922 11.632 0.0419922C11.9523 0.0419922 12.2654 0.137234 12.5314 0.31561C12.7974 0.493985 13.0044 0.747436 13.126 1.04374L15.3716 6.48057L21.1954 6.95042C21.514 6.97737 21.8176 7.09776 22.0682 7.2965C22.3187 7.49524 22.505 7.76349 22.6038 8.06765C22.7025 8.37181 22.7093 8.69835 22.6233 9.00636C22.5373 9.31437 22.3623 9.59014 22.1202 9.79913L22.1262 9.79815Z" fill="#FFD000"/>
</svg>
