<svg width="83" height="82" viewBox="0 0 83 82" fill="none" xmlns="http://www.w3.org/2000/svg">
<path d="M34.5174 68.0602H35.2722L35.2685 60.6614H3.82692C2.10164 60.6724 0.703615 62.0558 0.692383 63.763V68.0602C1.5922 67.891 2.51809 68.1264 3.22457 68.7041C3.92733 69.278 4.33637 70.1352 4.33637 71.0403C4.33637 71.9454 3.92736 72.8027 3.22457 73.3803C2.5181 73.9579 1.59229 74.1934 0.692383 74.0242V81.423H35.2685V74.0242C34.4281 74.2155 33.5432 74.0425 32.8367 73.5532C32.1302 73.0639 31.6654 72.3023 31.5576 71.4524C31.4534 70.6062 31.7137 69.7526 32.2752 69.1088C32.8404 68.4612 33.651 68.0786 34.5174 68.0602ZM13.4161 74.0241H10.4005C8.7496 74.002 7.42592 72.6738 7.42592 71.0403C7.42592 69.4104 8.7496 68.0823 10.4005 68.0601H13.4161C15.0633 68.0822 16.3833 69.4104 16.3833 71.0403C16.3833 72.6702 15.0633 74.002 13.4161 74.0241ZM25.4745 74.0241H22.459C20.808 74.002 19.4843 72.6738 19.4843 71.0403C19.4843 69.4104 20.808 68.0823 22.459 68.0601H25.4745H25.4708C27.118 68.0822 28.4417 69.4104 28.4417 71.0403C28.4417 72.6702 27.118 74.002 25.4708 74.0241H25.4745ZM57.846 67.4017H65.5615V81.4194L57.846 81.4231V67.4017ZM82.1113 45.0908V81.4185L71.5921 81.4221V64.4206C71.5884 62.7723 70.2423 61.4404 68.5766 61.4368H54.8305H54.8342C53.1684 61.4404 51.8223 62.7723 51.8186 64.4206V81.4221H41.2994V54.9944C41.2994 54.2512 41.6861 53.5632 42.3219 53.1732L58.3887 43.2686V43.2723C59.058 42.8529 59.902 42.8308 60.5936 43.2097C61.2815 43.5887 61.7091 44.3098 61.7054 45.0898V49.9537C61.7091 50.73 62.1367 51.4474 62.8246 51.8264C63.5125 52.2016 64.3529 52.1832 65.0222 51.7712L78.7987 43.2724C79.4643 42.853 80.3083 42.8309 80.9999 43.2098C81.6915 43.5888 82.1192 44.3099 82.1154 45.0899L82.1113 45.0908ZM25.0281 30.4769H11.9769C12.3189 28.4092 11.5418 24.4725 14.7209 24.421H22.2579H22.2542C23.5445 24.4136 24.619 25.3886 24.7269 26.6579L25.0281 30.4769ZM26.7459 52.7576H10.2289L11.5266 36.4408H25.485L26.7459 52.7576ZM30.4977 55.2925V60.6751H6.4846V55.2887C6.48089 54.6228 6.74489 53.979 7.2171 53.5007C7.69304 53.0261 8.34004 52.7575 9.01673 52.7538H27.9353C29.3483 52.7575 30.4935 53.8907 30.4972 55.2888L30.4977 55.2925ZM21.2168 9.67434C22.5071 9.22916 23.9163 9.24388 25.1954 9.72217C25.3516 6.83771 27.0211 4.24391 29.5941 2.87897C32.1709 1.51769 35.2794 1.58391 37.7893 3.05925C40.7081 0.115929 45.1291 -0.80022 48.9957 0.733979C52.8627 2.27185 55.4135 5.9584 55.4619 10.0827C55.4135 14.2034 52.8627 17.8899 48.9957 19.4278C45.1287 20.9657 40.7077 20.0496 37.7893 17.1063C35.1307 18.692 31.7991 18.681 29.1517 17.0768C28.6051 18.7876 27.1885 20.0901 25.4222 20.5021C23.656 20.9142 21.8043 20.3733 20.5439 19.082C18.826 18.0481 17.8369 16.157 17.982 14.174C18.1233 12.1946 19.3726 10.458 21.2168 9.67434Z" fill="#353535"/>
</svg>
