<svg width="26" height="26" viewBox="0 0 26 26" fill="none" xmlns="http://www.w3.org/2000/svg">
<path d="M23.4724 11.7981L19.0305 15.631L20.3838 21.3629C20.4585 21.6741 20.4392 22.0004 20.3285 22.3007C20.2178 22.6009 20.0207 22.8616 19.7619 23.0498C19.5031 23.238 19.1943 23.3453 18.8746 23.3582C18.5549 23.371 18.2385 23.2888 17.9654 23.1219L12.9807 20.0541L7.99299 23.1219C7.71999 23.2878 7.404 23.3693 7.08481 23.356C6.76563 23.3427 6.45751 23.2352 6.19927 23.0471C5.94102 22.8591 5.7442 22.5988 5.63358 22.2991C5.52295 21.9994 5.50348 21.6737 5.5776 21.3629L6.93582 15.631L2.49397 11.7981C2.25243 11.5894 2.07774 11.3141 1.99172 11.0067C1.90571 10.6992 1.91217 10.3732 2.01031 10.0694C2.10845 9.76565 2.29392 9.4975 2.54355 9.29849C2.79318 9.09947 3.0959 8.97841 3.41393 8.95042L9.23769 8.48057L11.4843 3.04374C11.6059 2.74744 11.8129 2.49399 12.0789 2.31561C12.3449 2.13723 12.6579 2.04199 12.9782 2.04199C13.2985 2.04199 13.6116 2.13723 13.8776 2.31561C14.1436 2.49399 14.3506 2.74744 14.4722 3.04374L16.7178 8.48057L22.5415 8.95042C22.8602 8.97737 23.1638 9.09776 23.4143 9.2965C23.6649 9.49524 23.8512 9.76349 23.95 10.0677C24.0487 10.3718 24.0555 10.6984 23.9695 11.0064C23.8835 11.3144 23.7085 11.5901 23.4664 11.7991L23.4724 11.7981Z" fill="#D9D9D9"/>
</svg>
