<svg width="26" height="26" viewBox="0 0 26 26" fill="none" xmlns="http://www.w3.org/2000/svg">
<path d="M23.4338 12.0674L18.9919 15.9003L20.3452 21.6322C20.4199 21.9434 20.4007 22.2697 20.29 22.5699C20.1793 22.8702 19.9821 23.1309 19.7233 23.3191C19.4645 23.5073 19.1558 23.6146 18.836 23.6275C18.5163 23.6403 18.1999 23.5581 17.9269 23.3912L12.9421 20.3234L7.95441 23.3912C7.68141 23.5571 7.36543 23.6386 7.04624 23.6253C6.72705 23.6119 6.41894 23.5045 6.16069 23.3164C5.90245 23.1284 5.70562 22.8681 5.595 22.5684C5.48438 22.2687 5.4649 21.943 5.53903 21.6322L6.89725 15.9003L2.45539 12.0674C2.21385 11.8587 2.03917 11.5834 1.95315 11.2759C1.86713 10.9685 1.8736 10.6425 1.97174 10.3387C2.06988 10.0349 2.25534 9.76679 2.50497 9.56778C2.7546 9.36876 3.05733 9.2477 3.37535 9.21971L9.19912 8.74986L11.4457 3.31303C11.5673 3.01672 11.7743 2.76327 12.0403 2.5849C12.3063 2.40652 12.6194 2.31128 12.9397 2.31128C13.2599 2.31128 13.573 2.40652 13.839 2.5849C14.105 2.76327 14.312 3.01672 14.4336 3.31303L16.6792 8.74986L22.503 9.21971C22.8216 9.24666 23.1252 9.36705 23.3758 9.56579C23.6263 9.76453 23.8126 10.0328 23.9114 10.3369C24.0101 10.6411 24.0169 10.9676 23.9309 11.2756C23.8449 11.5837 23.6699 11.8594 23.4279 12.0684L23.4338 12.0674Z" fill="#D9D9D9"/>
</svg>
