<svg width="26" height="26" viewBox="0 0 26 26" fill="none" xmlns="http://www.w3.org/2000/svg">
<path d="M23.7031 11.7981L19.2612 15.631L20.6145 21.3629C20.6892 21.6741 20.6699 22.0004 20.5593 22.3007C20.4486 22.6009 20.2514 22.8616 19.9926 23.0498C19.7338 23.238 19.425 23.3453 19.1053 23.3582C18.7856 23.371 18.4692 23.2888 18.1962 23.1219L13.2114 20.0541L8.2237 23.1219C7.9507 23.2878 7.63471 23.3693 7.31553 23.356C6.99634 23.3427 6.68822 23.2352 6.42998 23.0471C6.17174 22.8591 5.97491 22.5988 5.86429 22.2991C5.75366 21.9994 5.73419 21.6737 5.80832 21.3629L7.16654 15.631L2.72468 11.7981C2.48314 11.5894 2.30845 11.3141 2.22244 11.0067C2.13642 10.6992 2.14289 10.3732 2.24103 10.0694C2.33917 9.76565 2.52463 9.4975 2.77426 9.29849C3.02389 9.09947 3.32662 8.97841 3.64464 8.95042L9.46841 8.48057L11.715 3.04374C11.8366 2.74744 12.0436 2.49399 12.3096 2.31561C12.5756 2.13723 12.8887 2.04199 13.2089 2.04199C13.5292 2.04199 13.8423 2.13723 14.1083 2.31561C14.3743 2.49399 14.5813 2.74744 14.7029 3.04374L16.9485 8.48057L22.7723 8.95042C23.0909 8.97737 23.3945 9.09776 23.6451 9.2965C23.8956 9.49524 24.0819 9.76349 24.1807 10.0677C24.2794 10.3718 24.2862 10.6984 24.2002 11.0064C24.1142 11.3144 23.9392 11.5901 23.6972 11.7991L23.7031 11.7981Z" fill="#D9D9D9"/>
</svg>
