<svg width="26" height="26" viewBox="0 0 26 26" fill="none" xmlns="http://www.w3.org/2000/svg">
<path d="M23.7414 12.0674L19.2995 15.9003L20.6528 21.6322C20.7275 21.9434 20.7083 22.2697 20.5976 22.5699C20.4869 22.8702 20.2897 23.1309 20.0309 23.3191C19.7721 23.5073 19.4634 23.6146 19.1436 23.6275C18.8239 23.6403 18.5075 23.5581 18.2345 23.3912L13.2497 20.3234L8.26203 23.3912C7.98903 23.5571 7.67304 23.6386 7.35386 23.6253C7.03467 23.6119 6.72655 23.5045 6.46831 23.3164C6.21007 23.1284 6.01324 22.8681 5.90262 22.5684C5.792 22.2687 5.77252 21.943 5.84665 21.6322L7.20487 15.9003L2.76301 12.0674C2.52147 11.8587 2.34678 11.5834 2.26077 11.2759C2.17475 10.9685 2.18122 10.6425 2.27936 10.3387C2.3775 10.0349 2.56296 9.76679 2.81259 9.56778C3.06222 9.36876 3.36495 9.2477 3.68297 9.21971L9.50674 8.74986L11.7533 3.31303C11.8749 3.01672 12.0819 2.76327 12.3479 2.5849C12.6139 2.40652 12.927 2.31128 13.2473 2.31128C13.5676 2.31128 13.8806 2.40652 14.1466 2.5849C14.4126 2.76327 14.6196 3.01672 14.7412 3.31303L16.9868 8.74986L22.8106 9.21971C23.1292 9.24666 23.4329 9.36705 23.6834 9.56579C23.9339 9.76453 24.1202 10.0328 24.219 10.3369C24.3177 10.6411 24.3245 10.9676 24.2385 11.2756C24.1525 11.5837 23.9775 11.8594 23.7355 12.0684L23.7414 12.0674Z" fill="#D9D9D9"/>
</svg>
