<svg width="26" height="26" viewBox="0 0 26 26" fill="none" xmlns="http://www.w3.org/2000/svg">
<path d="M23.7414 11.7981L19.2995 15.631L20.6528 21.3629C20.7275 21.6741 20.7083 22.0004 20.5976 22.3007C20.4869 22.6009 20.2897 22.8616 20.0309 23.0498C19.7721 23.238 19.4634 23.3453 19.1436 23.3582C18.8239 23.371 18.5075 23.2888 18.2345 23.1219L13.2497 20.0541L8.26203 23.1219C7.98903 23.2878 7.67304 23.3693 7.35386 23.356C7.03467 23.3427 6.72655 23.2352 6.46831 23.0471C6.21007 22.8591 6.01324 22.5988 5.90262 22.2991C5.792 21.9994 5.77252 21.6737 5.84665 21.3629L7.20487 15.631L2.76301 11.7981C2.52147 11.5894 2.34678 11.3141 2.26077 11.0067C2.17475 10.6992 2.18122 10.3732 2.27936 10.0694C2.3775 9.76565 2.56296 9.4975 2.81259 9.29849C3.06222 9.09947 3.36495 8.97841 3.68297 8.95042L9.50674 8.48057L11.7533 3.04374C11.8749 2.74744 12.0819 2.49399 12.3479 2.31561C12.6139 2.13723 12.927 2.04199 13.2473 2.04199C13.5676 2.04199 13.8806 2.13723 14.1466 2.31561C14.4126 2.49399 14.6196 2.74744 14.7412 3.04374L16.9868 8.48057L22.8106 8.95042C23.1292 8.97737 23.4329 9.09776 23.6834 9.2965C23.9339 9.49524 24.1202 9.76349 24.219 10.0677C24.3177 10.3718 24.3245 10.6984 24.2385 11.0064C24.1525 11.3144 23.9775 11.5901 23.7355 11.7991L23.7414 11.7981Z" fill="#D9D9D9"/>
</svg>
