<svg width="26" height="26" viewBox="0 0 26 26" fill="none" xmlns="http://www.w3.org/2000/svg">
<path d="M23.6262 11.7981L19.1843 15.631L20.5376 21.3629C20.6123 21.6741 20.593 22.0004 20.4823 22.3007C20.3717 22.6009 20.1745 22.8616 19.9157 23.0498C19.6569 23.238 19.3481 23.3453 19.0284 23.3582C18.7087 23.371 18.3923 23.2888 18.1193 23.1219L13.1345 20.0541L8.1468 23.1219C7.8738 23.2878 7.55781 23.3693 7.23862 23.356C6.91943 23.3427 6.61132 23.2352 6.35308 23.0471C6.09483 22.8591 5.89801 22.5988 5.78738 22.2991C5.67676 21.9994 5.65729 21.6737 5.73141 21.3629L7.08963 15.631L2.64778 11.7981C2.40624 11.5894 2.23155 11.3141 2.14553 11.0067C2.05952 10.6992 2.06598 10.3732 2.16412 10.0694C2.26226 9.76565 2.44773 9.4975 2.69736 9.29849C2.94698 9.09947 3.24971 8.97841 3.56773 8.95042L9.3915 8.48057L11.6381 3.04374C11.7597 2.74744 11.9667 2.49399 12.2327 2.31561C12.4987 2.13723 12.8118 2.04199 13.132 2.04199C13.4523 2.04199 13.7654 2.13723 14.0314 2.31561C14.2974 2.49399 14.5044 2.74744 14.626 3.04374L16.8716 8.48057L22.6954 8.95042C23.014 8.97737 23.3176 9.09776 23.5682 9.2965C23.8187 9.49524 24.005 9.76349 24.1038 10.0677C24.2025 10.3718 24.2093 10.6984 24.1233 11.0064C24.0373 11.3144 23.8623 11.5901 23.6202 11.7991L23.6262 11.7981Z" fill="#D9D9D9"/>
</svg>
