<svg width="27" height="26" viewBox="0 0 27 26" fill="none" xmlns="http://www.w3.org/2000/svg">
<path d="M23.8955 12.0674L19.4536 15.9003L20.8069 21.6322C20.8816 21.9434 20.8623 22.2697 20.7516 22.5699C20.6409 22.8702 20.4437 23.1309 20.185 23.3191C19.9262 23.5073 19.6174 23.6146 19.2977 23.6275C18.9779 23.6403 18.6616 23.5581 18.3885 23.3912L13.4038 20.3234L8.41608 23.3912C8.14308 23.5571 7.8271 23.6386 7.50791 23.6253C7.18872 23.6119 6.88061 23.5045 6.62236 23.3164C6.36412 23.1284 6.16729 22.8681 6.05667 22.5684C5.94605 22.2687 5.92657 21.943 6.0007 21.6322L7.35892 15.9003L2.91706 12.0674C2.67552 11.8587 2.50084 11.5834 2.41482 11.2759C2.3288 10.9685 2.33527 10.6425 2.43341 10.3387C2.53155 10.0349 2.71701 9.76679 2.96664 9.56778C3.21627 9.36876 3.519 9.2477 3.83702 9.21971L9.66079 8.74986L11.9074 3.31303C12.029 3.01672 12.236 2.76327 12.502 2.5849C12.768 2.40652 13.081 2.31128 13.4013 2.31128C13.7216 2.31128 14.0347 2.40652 14.3007 2.5849C14.5667 2.76327 14.7737 3.01672 14.8953 3.31303L17.1409 8.74986L22.9646 9.21971C23.2833 9.24666 23.5869 9.36705 23.8374 9.56579C24.088 9.76453 24.2743 10.0328 24.373 10.3369C24.4718 10.6411 24.4786 10.9676 24.3926 11.2756C24.3066 11.5837 24.1316 11.8594 23.8895 12.0684L23.8955 12.0674Z" fill="#D9D9D9"/>
</svg>
