<svg width="26" height="26" viewBox="0 0 26 26" fill="none" xmlns="http://www.w3.org/2000/svg">
<path d="M23.5876 12.0674L19.1457 15.9003L20.499 21.6322C20.5737 21.9434 20.5545 22.2697 20.4438 22.5699C20.3331 22.8702 20.1359 23.1309 19.8771 23.3191C19.6183 23.5073 19.3096 23.6146 18.9898 23.6275C18.6701 23.6403 18.3537 23.5581 18.0807 23.3912L13.0959 20.3234L8.10822 23.3912C7.83522 23.5571 7.51923 23.6386 7.20005 23.6253C6.88086 23.6119 6.57275 23.5045 6.3145 23.3164C6.05626 23.1284 5.85943 22.8681 5.74881 22.5684C5.63819 22.2687 5.61871 21.943 5.69284 21.6322L7.05106 15.9003L2.6092 12.0674C2.36766 11.8587 2.19298 11.5834 2.10696 11.2759C2.02094 10.9685 2.02741 10.6425 2.12555 10.3387C2.22369 10.0349 2.40915 9.76679 2.65878 9.56778C2.90841 9.36876 3.21114 9.2477 3.52916 9.21971L9.35293 8.74986L11.5995 3.31303C11.7211 3.01672 11.9281 2.76327 12.1941 2.5849C12.4601 2.40652 12.7732 2.31128 13.0935 2.31128C13.4138 2.31128 13.7268 2.40652 13.9928 2.5849C14.2588 2.76327 14.4658 3.01672 14.5874 3.31303L16.833 8.74986L22.6568 9.21971C22.9754 9.24666 23.279 9.36705 23.5296 9.56579C23.7801 9.76453 23.9664 10.0328 24.0652 10.3369C24.1639 10.6411 24.1707 10.9676 24.0847 11.2756C23.9987 11.5837 23.8237 11.8594 23.5817 12.0684L23.5876 12.0674Z" fill="#D9D9D9"/>
</svg>
